<svg width="649.84" height="119.36" xmlns="http://www.w3.org/2000/svg" xmlns:undefined="http://sodipodi.sourceforge.net/DTD/sodipodi-0.dtd" version="1.1" xml:space="preserve">

 <g>
  <title>Layer 1</title>
  <g id="g2">
   <path id="path1" d="m59.68,0c8.11,0 15.85,1.62 22.9,4.56l-5.86,12.12c-5.27,-2.09 -11.02,-3.24 -17.04,-3.24c-25.54,0 -46.24,20.7 -46.24,46.24c0,25.54 20.7,46.24 46.24,46.24c25.54,0 46.24,-20.7 46.24,-46.24c0,-5.26 -0.88,-10.32 -2.5,-15.03l12.38,-5.29c2.3,6.34 3.55,13.19 3.55,20.33c0,32.96 -26.72,59.68 -59.68,59.68c-32.96,0 -59.68,-26.72 -59.68,-59.68c0,-32.96 26.72,-59.68 59.68,-59.68l0.01,-0.01zm575.78,24.95c0,-0.34 0.12,-0.63 0.36,-0.87c0.24,-0.24 0.53,-0.36 0.87,-0.36l11.92,0c0.34,0 0.63,0.12 0.87,0.36c0.24,0.24 0.36,0.53 0.36,0.87l0,69.45c0,0.34 -0.12,0.63 -0.36,0.87c-0.24,0.24 -0.53,0.36 -0.87,0.36l-13.56,0c-0.68,0 -1.13,-0.34 -1.34,-1.03l-12.74,-39.76c-0.07,-0.21 -0.19,-0.29 -0.36,-0.26c-0.17,0.03 -0.26,0.15 -0.26,0.36l0.1,39.45c0,0.34 -0.12,0.63 -0.36,0.87c-0.24,0.24 -0.53,0.36 -0.87,0.36l-11.92,0c-0.34,0 -0.63,-0.12 -0.87,-0.36c-0.24,-0.24 -0.36,-0.53 -0.36,-0.87l0,-69.45c0,-0.34 0.12,-0.63 0.36,-0.87c0.24,-0.24 0.53,-0.36 0.87,-0.36l13.46,0c0.69,0 1.13,0.34 1.34,1.03l12.84,39.76c0.07,0.21 0.19,0.29 0.36,0.26c0.17,-0.03 0.26,-0.15 0.26,-0.36l-0.1,-39.45zm-247.7,9.97c0,0.34 -0.12,0.63 -0.36,0.87c-0.24,0.24 -0.53,0.36 -0.87,0.36l-21.47,0c-0.34,0 -0.51,0.17 -0.51,0.51l0,16.23c0,0.34 0.17,0.51 0.51,0.51l12.33,0c0.34,0 0.63,0.12 0.87,0.36c0.24,0.24 0.36,0.53 0.36,0.87l0,9.97c0,0.34 -0.12,0.63 -0.36,0.87c-0.24,0.24 -0.53,0.36 -0.87,0.36l-12.33,0c-0.34,0 -0.51,0.17 -0.51,0.51l0,16.34c0,0.34 0.17,0.51 0.51,0.51l21.47,0c0.34,0 0.63,0.12 0.87,0.36c0.24,0.24 0.36,0.53 0.36,0.87l0,9.97c0,0.34 -0.12,0.63 -0.36,0.87c-0.24,0.24 -0.53,0.36 -0.87,0.36l-35.24,0c-0.34,0 -0.63,-0.12 -0.87,-0.36c-0.24,-0.24 -0.36,-0.53 -0.36,-0.87l0,-69.45c0,-0.34 0.12,-0.63 0.36,-0.87c0.24,-0.24 0.53,-0.36 0.87,-0.36l35.24,0c0.34,0 0.63,0.12 0.87,0.36c0.24,0.24 0.36,0.53 0.36,0.87l0,9.97l0,0.01zm-85.07,60.72c-0.34,0 -0.63,-0.12 -0.87,-0.36c-0.24,-0.24 -0.36,-0.53 -0.36,-0.87l0,-69.45c0,-0.34 0.12,-0.63 0.36,-0.87c0.24,-0.24 0.53,-0.36 0.87,-0.36l18.6,0c6.23,0 11.23,1.81 15,5.44c3.77,3.63 5.65,8.46 5.65,14.49l0,32.05c0,6.03 -1.88,10.86 -5.65,14.49c-3.77,3.63 -8.77,5.44 -15,5.44l-18.6,0zm13.25,-12.94c0,0.34 0.17,0.51 0.51,0.51l4.62,-0.1c1.85,-0.07 3.36,-0.86 4.52,-2.36c1.16,-1.51 1.78,-3.49 1.85,-5.96l0,-30.2c0,-2.6 -0.58,-4.66 -1.75,-6.16c-1.16,-1.51 -2.74,-2.26 -4.73,-2.26l-4.52,0c-0.34,0 -0.51,0.17 -0.51,0.51l0,46.03l0.01,-0.01zm-37.91,-57.74c0,-0.34 0.12,-0.63 0.36,-0.87c0.24,-0.24 0.53,-0.36 0.87,-0.36l11.92,0c0.34,0 0.63,0.12 0.87,0.36c0.24,0.24 0.36,0.53 0.36,0.87l0,69.45c0,0.34 -0.12,0.63 -0.36,0.87c-0.24,0.24 -0.53,0.36 -0.87,0.36l-13.56,0c-0.69,0 -1.13,-0.34 -1.34,-1.03l-12.74,-39.76c-0.07,-0.21 -0.19,-0.29 -0.36,-0.26c-0.17,0.03 -0.26,0.15 -0.26,0.36l0.1,39.45c0,0.34 -0.12,0.63 -0.36,0.87c-0.24,0.24 -0.53,0.36 -0.87,0.36l-11.92,0c-0.34,0 -0.63,-0.12 -0.87,-0.36c-0.24,-0.24 -0.36,-0.53 -0.36,-0.87l0,-69.45c0,-0.34 0.12,-0.63 0.36,-0.87c0.24,-0.24 0.53,-0.36 0.87,-0.36l13.46,0c0.68,0 1.13,0.34 1.34,1.03l12.84,39.76c0.07,0.21 0.19,0.29 0.36,0.26c0.17,-0.03 0.26,-0.15 0.26,-0.36l-0.1,-39.45zm-48.7,70.68c-0.82,0 -1.27,-0.38 -1.34,-1.13c-2.89,-17.31 -4.87,-28.28 -8.63,-50.14c-0.07,-0.2 -0.17,-0.31 -0.31,-0.31c-0.14,0 -0.24,0.1 -0.31,0.31c-4.21,25.54 -5.14,31.01 -8.32,50.14c-0.07,0.75 -0.51,1.13 -1.34,1.13l-12.02,0c-0.89,0 -1.23,-0.44 -1.03,-1.33l15.1,-69.45c0.14,-0.75 0.58,-1.13 1.34,-1.13l13.87,0c0.75,0 1.2,0.38 1.34,1.13l15,69.45l0.1,0.41c0,0.62 -0.38,0.92 -1.13,0.92l-12.33,0l0.01,0zm-50.75,0c-0.75,0 -1.23,-0.34 -1.44,-1.03l-7.91,-28.36c-0.14,-0.27 -0.31,-0.41 -0.51,-0.41l-3.49,0c-0.34,0 -0.51,0.17 -0.51,0.51l0,28.05c0,0.34 -0.12,0.63 -0.36,0.87c-0.24,0.24 -0.53,0.36 -0.87,0.36l-12.02,0c-0.34,0 -0.63,-0.12 -0.87,-0.36c-0.24,-0.24 -0.36,-0.53 -0.36,-0.87l0,-69.45c0,-0.34 0.12,-0.63 0.36,-0.87c0.24,-0.24 0.53,-0.36 0.87,-0.36l20.75,0c3.77,0 7.12,0.91 10.07,2.72c2.94,1.81 5.22,4.37 6.83,7.65c1.61,3.29 2.41,7.05 2.41,11.3c0,4.04 -0.77,7.6 -2.31,10.68c-1.54,3.08 -3.68,5.48 -6.42,7.19c-0.14,0.07 -0.24,0.15 -0.31,0.26c-0.07,0.1 -0.07,0.22 0,0.36l9.45,30.31l0.1,0.41c0,0.68 -0.38,1.03 -1.13,1.03l-12.33,0l0,0.01zm-13.36,-59.48c-0.34,0 -0.51,0.17 -0.51,0.51l0,17.57c0,0.34 0.17,0.51 0.51,0.51l4.62,0c2.12,0 3.85,-0.84 5.19,-2.52c1.34,-1.68 2,-3.92 2,-6.73c0,-2.88 -0.67,-5.15 -2,-6.83c-1.34,-1.68 -3.06,-2.52 -5.19,-2.52l-4.62,0l0,0.01zm243.69,59.48c-0.75,0 -1.2,-0.38 -1.34,-1.13l-14.69,-69.45l-0.1,-0.41c0,-0.62 0.38,-0.92 1.13,-0.92l13.25,0c0.82,0 1.27,0.38 1.34,1.13l7.09,45.2c0.07,0.27 0.17,0.41 0.31,0.41c0.14,0 0.24,-0.14 0.31,-0.41l6.88,-45.2c0.07,-0.75 0.51,-1.13 1.34,-1.13l12.84,0c0.89,0 1.23,0.44 1.03,1.34l-14.79,69.45c-0.14,0.75 -0.58,1.13 -1.34,1.13l-13.25,0l-0.01,-0.01zm37.5,0c-0.34,0 -0.63,-0.12 -0.87,-0.36c-0.24,-0.24 -0.36,-0.53 -0.36,-0.87l0,-45.85l14.49,-8.36l0,54.21c0,0.34 -0.12,0.63 -0.36,0.87c-0.24,0.24 -0.53,0.36 -0.87,0.36l-12.02,0l-0.01,0zm21.16,0c-0.34,0 -0.63,-0.12 -0.87,-0.36c-0.24,-0.24 -0.36,-0.53 -0.36,-0.87l0,-10.38c0,-0.55 0.1,-1.06 0.31,-1.54l21.99,-45.72c0.07,-0.21 0.07,-0.36 0,-0.46c-0.07,-0.1 -0.2,-0.15 -0.41,-0.15l-20.65,0c-0.34,0 -0.63,-0.12 -0.87,-0.36c-0.24,-0.24 -0.36,-0.53 -0.36,-0.87l0,-9.97c0,-0.34 0.12,-0.63 0.36,-0.87c0.24,-0.24 0.53,-0.36 0.87,-0.36l35.34,0c0.34,0 0.63,0.12 0.87,0.36c0.24,0.24 0.36,0.53 0.36,0.87l0,10.38c0,0.48 -0.1,0.99 -0.31,1.54l-21.99,45.72c-0.07,0.2 -0.07,0.36 0,0.46c0.07,0.1 0.21,0.15 0.41,0.15l20.65,0c0.34,0 0.63,0.12 0.87,0.36c0.24,0.24 0.36,0.53 0.36,0.87l0,9.97c0,0.34 -0.12,0.63 -0.36,0.87c-0.24,0.24 -0.53,0.36 -0.87,0.36l-35.34,0zm57.33,-0.1c-0.34,0 -0.63,-0.12 -0.87,-0.36c-0.24,-0.24 -0.36,-0.53 -0.36,-0.87l0,-26.71l-0.1,-0.62l-14.38,-41.81c-0.07,-0.14 -0.1,-0.31 -0.1,-0.51c0,-0.62 0.38,-0.92 1.13,-0.92l12.64,0c0.75,0 1.23,0.34 1.44,1.03l6.37,24.55c0.07,0.21 0.17,0.31 0.31,0.31c0.14,0 0.24,-0.1 0.31,-0.31l6.37,-24.55c0.21,-0.68 0.68,-1.03 1.44,-1.03l12.64,0c0.41,0 0.72,0.12 0.92,0.36c0.21,0.24 0.24,0.6 0.1,1.08l-14.49,41.81l-0.1,0.62l0,26.71c0,0.34 -0.12,0.63 -0.36,0.87c-0.24,0.24 -0.53,0.36 -0.87,0.36l-12.02,0l-0.02,-0.01zm52.29,0.92c-6.3,0 -11.34,-1.85 -15.1,-5.55c-3.77,-3.7 -5.65,-8.63 -5.65,-14.79l0,-32.88c0,-6.16 1.88,-11.1 5.65,-14.8c3.77,-3.7 8.8,-5.55 15.1,-5.55c6.3,0 11.35,1.85 15.15,5.55c3.8,3.7 5.7,8.63 5.7,14.8l0,32.88c0,6.16 -1.9,11.1 -5.7,14.79c-3.8,3.7 -8.85,5.55 -15.15,5.55zm0,-12.43c1.92,0 3.46,-0.67 4.62,-2c1.16,-1.34 1.75,-3.1 1.75,-5.29l0,-34.11c0,-2.19 -0.58,-3.95 -1.75,-5.29c-1.16,-1.34 -2.71,-2 -4.62,-2c-1.92,0 -3.44,0.67 -4.57,2c-1.13,1.34 -1.69,3.1 -1.69,5.29l0,34.11c0,2.19 0.56,3.96 1.69,5.29c1.13,1.34 2.65,2 4.57,2zm-537.77,-5.25l1.54,1.54l-9.63,9.63l-1.54,-1.54l9.63,-9.63zm1.54,-39.68l-1.54,1.54l-9.63,-9.63l1.54,-1.54l9.63,9.63zm-8.99,19.52l0,2.18l-13.62,0l0,-2.18l13.62,0zm26.97,-40.59l2.18,0l0,13.62l-2.18,0l0,-13.62zm42.77,40.59l0,2.18l-13.62,0l0,-2.18l13.62,0zm-11.44,29.79l-1.54,1.54l-9.63,-9.63l1.54,-1.54l9.63,9.63zm-31.33,-0.64l2.18,0l0,13.62l-2.18,0l0,-13.62z" fill="#0D3760"/>
   <path id="path2" d="m106.91,13.67l-50.39,44.03l-19.34,-12.44c-2.46,-1.93 -6.63,0.89 -4.36,3.81l16.76,21.62l5.03,6.71c2.18,2.18 7.08,2.18 9.81,-0.54l45.22,-61.02c1.63,-1.63 -1.09,-3.81 -2.72,-2.18l-0.01,0.01zm338.29,32.52l0,-21.23c0,-0.34 0.12,-0.63 0.36,-0.87c0.24,-0.24 0.53,-0.36 0.87,-0.36l12.02,0c0.34,0 0.63,0.12 0.87,0.36c0.24,0.24 0.36,0.53 0.36,0.87l0,12.87l-14.49,8.36l0.01,0z" fill="#84CB0F"/>
  </g>
 </g>
</svg>