<svg version="1.1" id="Layer_1" xmlns="http://www.w3.org/2000/svg" xmlns:xlink="http://www.w3.org/1999/xlink" x="0px" y="0px"
	 width="100%" viewBox="0 0 1024 1024" enable-background="new 0 0 1024 1024" xml:space="preserve">
<path fill="#000000" opacity="1.000000" stroke="none" 
	d="
M437.770935,576.323975 
	C399.285614,552.051208 375.322052,518.095703 368.434875,473.335907 
	C361.360260,427.357910 373.619659,386.455566 404.780884,351.768951 
	C427.140472,326.879730 455.269531,311.795593 488.220612,306.097931 
	C561.060303,293.502960 633.244934,337.893982 653.456238,409.361877 
	C665.964905,453.592987 659.820129,495.353821 633.771484,533.282104 
	C609.662170,568.386841 576.018982,589.168945 533.653809,595.412109 
	C499.544403,600.438660 467.798004,593.653320 437.770935,576.323975 
M591.634583,436.499939 
	C591.646118,428.501831 591.543274,420.501343 591.712830,412.506561 
	C591.811462,407.855347 590.045227,404.505249 586.037354,402.200806 
	C563.653442,389.330353 541.261353,376.473541 518.928650,363.514740 
	C514.723267,361.074554 510.962189,361.190796 506.767700,363.634918 
	C484.893066,376.381470 462.956207,389.022064 440.977905,401.589142 
	C436.452362,404.176819 434.299805,407.776642 434.309357,412.952087 
	C434.355469,437.946442 434.355499,462.941040 434.307037,487.935394 
	C434.297028,493.090851 436.353485,496.736603 440.901154,499.334839 
	C463.030609,511.978058 485.118164,524.695679 507.138489,537.527771 
	C511.209717,539.900269 514.778076,539.881531 518.810852,537.540894 
	C540.565857,524.914185 562.344788,512.326782 584.225830,499.920380 
	C589.658447,496.840118 591.838257,492.667053 591.745911,486.487946 
	C591.502075,470.161682 591.643066,453.829651 591.634583,436.499939 
z"/>
<path fill="#000000" opacity="1.000000" stroke="none" 
	d="
M616.837219,663.751282 
	C621.591980,663.310608 624.478516,664.240417 624.109985,669.538086 
	C623.887634,672.734680 622.541992,674.008057 619.481689,673.984070 
	C612.990662,673.933044 606.498779,673.984741 600.007690,673.937622 
	C597.204651,673.917297 595.164001,674.395081 595.142700,677.967957 
	C595.120667,681.674133 597.352844,681.864319 600.064331,681.853149 
	C609.718567,681.813354 619.374329,681.905701 629.026550,681.753601 
	C632.556641,681.697937 634.182312,682.818665 634.210449,686.585388 
	C634.238831,690.372192 632.920410,692.102600 629.017639,692.057434 
	C618.532288,691.936096 608.043457,692.078186 597.559265,691.910889 
	C592.416748,691.828857 585.080017,684.206970 584.969299,679.050171 
	C584.851440,673.559448 585.481995,667.991760 584.776611,662.589478 
	C583.825439,655.304199 587.890930,651.144531 592.662659,647.056458 
	C594.035828,645.880066 595.629211,645.693970 597.327881,645.695618 
	C607.980957,645.705872 618.635681,645.804688 629.286255,645.639954 
	C633.070984,645.581360 634.138184,647.208496 634.208496,650.716492 
	C634.284363,654.504333 632.740906,655.568054 629.134888,655.488586 
	C619.817810,655.283142 610.493408,655.418518 601.172058,655.388611 
	C598.075989,655.378723 595.112366,655.090820 595.103882,659.753906 
	C595.095520,664.308838 598.078064,663.736572 600.879456,663.748535 
	C606.039490,663.770630 611.199646,663.752563 616.837219,663.751282 
z"/>
<path fill="#000000" opacity="1.000000" stroke="none" 
	d="
M311.000336,655.395935 
	C305.506470,655.398254 300.509705,655.497864 295.518951,655.367493 
	C292.187042,655.280457 291.248291,656.850403 291.233582,659.946411 
	C291.217957,663.233887 292.938934,663.802185 295.649323,663.772461 
	C301.974487,663.703064 308.303375,663.866211 314.626068,663.724487 
	C318.185760,663.644775 320.193085,664.462891 320.258636,668.648438 
	C320.327209,673.027771 318.263367,674.109497 314.471008,674.017761 
	C309.479675,673.897034 304.462219,673.704102 299.497009,674.081665 
	C296.444061,674.313782 291.245636,671.599121 291.367828,678.030823 
	C291.489441,684.431702 296.722015,681.578552 299.680908,681.711670 
	C308.153503,682.093079 316.656525,681.920898 325.144470,681.778870 
	C328.629883,681.720581 330.297272,682.753784 330.322479,686.583374 
	C330.347778,690.427979 328.969910,692.065186 325.122040,692.027588 
	C314.635132,691.925171 304.145386,692.061035 293.659790,691.901306 
	C288.513763,691.822937 281.173004,684.204224 281.058472,679.036438 
	C280.940460,673.711731 281.375763,668.350891 280.909607,663.064026 
	C280.392670,657.200867 282.300049,652.888672 286.739044,649.102295 
	C289.293640,646.923279 291.635162,645.561646 295.103363,645.627686 
	C305.088165,645.817810 315.079773,645.769348 325.066864,645.653870 
	C328.455048,645.614685 330.299652,646.405090 330.329865,650.341858 
	C330.360596,654.350891 328.782867,655.623901 324.981842,655.437134 
	C320.498047,655.216736 315.994812,655.391846 311.000336,655.395935 
z"/>
<path fill="#000000" opacity="1.000000" stroke="none" 
	d="
M443.652283,676.994446 
	C443.650513,671.668762 443.641724,666.842224 443.649292,662.015625 
	C443.666260,651.182312 449.169617,645.702637 460.029541,645.697510 
	C466.354034,645.694519 472.678711,645.661377 479.002930,645.703186 
	C485.689941,645.747314 492.304596,652.308655 492.331177,658.938232 
	C492.368561,668.258301 492.229736,677.580750 492.396973,686.897949 
	C492.461273,690.480774 491.306671,692.068542 487.563416,692.000549 
	C483.937317,691.934814 482.310852,690.481873 482.714722,686.854736 
	C482.751312,686.526062 482.718811,686.189575 482.715332,685.856689 
	C482.589844,673.884888 482.589844,673.896362 470.825775,673.918518 
	C466.332397,673.926941 461.830383,674.028381 457.348328,673.788208 
	C454.231232,673.621216 453.164062,674.841064 453.298279,677.827698 
	C453.447571,681.149414 453.189362,684.489990 453.353516,687.810303 
	C453.529633,691.372314 451.437378,691.956055 448.611938,691.915405 
	C445.925507,691.876770 443.549225,691.632263 443.660858,687.977844 
	C443.767548,684.486389 443.663849,680.988586 443.652283,676.994446 
M468.493286,655.398560 
	C464.835876,655.401001 461.176422,655.480103 457.521729,655.381714 
	C454.587128,655.302734 453.329529,656.500671 453.304657,659.508240 
	C453.280945,662.380310 454.127228,663.845337 457.251862,663.794495 
	C464.398590,663.678162 471.548767,663.686584 478.696411,663.758545 
	C481.757782,663.789307 482.696442,662.347778 482.710724,659.457825 
	C482.725983,656.368042 481.320251,655.314026 478.458984,655.391235 
	C475.468872,655.471924 472.474670,655.402771 468.493286,655.398560 
z"/>
<path fill="#000000" opacity="1.000000" stroke="none" 
	d="
M705.342163,651.115234 
	C705.356995,663.766418 705.356995,663.766968 717.382202,663.752930 
	C721.547485,663.748047 725.720276,663.582214 729.875854,663.779663 
	C733.623047,663.957764 734.981628,662.348267 734.758667,658.744629 
	C734.584106,655.923645 734.871399,653.074829 734.714539,650.251648 
	C734.517822,646.711121 736.183533,645.604553 739.515015,645.643860 
	C742.694458,645.681335 745.087341,645.967957 745.056091,650.073364 
	C744.961121,662.568359 745.000977,675.064758 745.060303,687.560242 
	C745.077454,691.179382 743.060120,692.069824 739.926025,691.996338 
	C736.977478,691.927124 734.497131,691.500427 734.751343,687.676208 
	C734.784424,687.178894 734.749939,686.676941 734.743164,686.177124 
	C734.577271,673.882446 734.577209,673.892090 722.085449,673.928894 
	C717.753723,673.941650 713.416260,674.021057 709.092163,673.828247 
	C706.210754,673.699768 705.224121,674.873047 705.324219,677.630127 
	C705.451050,681.124023 705.238831,684.629944 705.357422,688.124451 
	C705.470886,691.465881 703.391785,691.936951 700.825256,691.923828 
	C698.227417,691.910461 695.685486,691.900391 695.696899,688.177856 
	C695.736084,675.348877 695.767761,662.519409 695.677490,649.690918 
	C695.652344,646.118164 697.707153,645.798035 700.513123,645.654968 
	C704.236877,645.465149 705.763062,647.001465 705.342163,651.115234 
z"/>
<path fill="#000000" opacity="1.000000" stroke="none" 
	d="
M413.985657,673.934814 
	C400.217987,673.886108 402.125549,672.997009 401.982788,685.361633 
	C401.914124,691.304382 401.097778,692.078979 396.017212,691.925110 
	C392.803711,691.827698 391.681458,690.406128 391.706146,687.285400 
	C391.803558,674.973022 391.828491,662.658752 391.706268,650.346863 
	C391.671783,646.876404 393.025909,645.627319 396.419678,645.647156 
	C399.627167,645.665955 402.073425,646.036011 401.968170,650.073792 
	C401.885864,653.232178 402.069946,656.397034 402.004761,659.556335 
	C401.945099,662.448486 403.090515,663.841064 406.128387,663.764404 
	C410.950745,663.642639 415.779541,663.654663 420.603058,663.745422 
	C423.613434,663.802002 424.788666,662.436890 424.701599,659.510254 
	C424.602753,656.185913 424.792236,652.853210 424.698944,649.528503 
	C424.608551,646.306885 426.434174,645.640991 429.150055,645.686707 
	C431.888336,645.732849 434.998871,645.464783 434.744263,649.407593 
	C434.348602,655.534363 436.516998,662.073181 432.122742,667.637085 
	C431.387634,668.567810 431.597260,669.500366 432.326538,670.342041 
	C437.434875,676.237183 433.981750,683.144592 434.400482,689.556396 
	C434.594666,692.530151 431.311646,691.895081 429.274323,691.881775 
	C427.070160,691.867371 424.784363,691.648743 424.760956,688.540527 
	C424.739655,685.712219 424.435364,682.853455 424.745270,680.062378 
	C425.294434,675.116699 423.134399,673.379883 418.465454,673.911133 
	C417.151276,674.060730 415.805695,673.934204 413.985657,673.934814 
z"/>
<path fill="#000000" opacity="1.000000" stroke="none" 
	d="
M642.696167,670.975342 
	C642.694824,667.814880 643.077332,665.080383 642.619446,662.494751 
	C641.376831,655.476501 645.437134,651.306885 650.094299,647.284180 
	C651.608704,645.976074 653.300171,645.680359 655.184570,645.684998 
	C664.184326,645.707092 673.186157,645.808044 682.182739,645.640320 
	C685.909058,645.570862 687.135681,647.078674 687.159851,650.668823 
	C687.185547,654.487183 685.474609,655.521545 681.964905,655.448303 
	C674.135132,655.284912 666.295349,655.546570 658.468445,655.324707 
	C654.466064,655.211304 652.632385,656.411560 652.839844,660.688293 
	C653.106079,666.175476 653.013245,671.686951 652.890991,677.183777 
	C652.814453,680.623291 654.271912,681.920593 657.673767,681.864197 
	C665.671265,681.731445 673.674927,681.938416 681.671265,681.773132 
	C685.416992,681.695740 687.136414,682.906616 687.178345,686.896057 
	C687.221252,690.971619 685.305603,692.098572 681.670776,692.050964 
	C673.338928,691.941772 665.004700,692.030945 656.672119,691.960571 
	C649.721313,691.901917 642.770813,684.889771 642.704224,677.969116 
	C642.683411,675.802673 642.698120,673.635803 642.696167,670.975342 
z"/>
<path fill="#000000" opacity="1.000000" stroke="none" 
	d="
M547.650696,670.012756 
	C547.648132,666.187439 547.540588,662.854797 547.674316,659.531799 
	C547.796448,656.497742 546.423340,655.327942 543.504822,655.388000 
	C539.845642,655.463379 536.181580,655.305481 532.522400,655.381042 
	C529.273010,655.448120 528.673523,653.541016 528.748779,650.863647 
	C528.821228,648.284607 528.629028,645.704163 532.410645,645.716309 
	C545.890320,645.759583 559.370178,645.714172 572.849854,645.760742 
	C577.082947,645.775330 576.104309,649.055969 576.300354,651.566711 
	C576.510437,654.256470 575.478149,655.597290 572.584290,655.440430 
	C569.597046,655.278442 566.573181,655.613647 563.604431,655.326904 
	C558.912415,654.873718 557.042847,656.499817 557.248474,661.447449 
	C557.600586,669.920471 557.223022,678.421448 557.423645,686.904297 
	C557.509949,690.551880 556.228149,692.006348 552.562500,692.000305 
	C548.972900,691.994324 547.458374,690.705383 547.606567,686.983154 
	C547.824951,681.500122 547.655334,676.001587 547.650696,670.012756 
z"/>
<path fill="#000000" opacity="1.000000" stroke="none" 
	d="
M357.121429,655.386047 
	C348.978577,655.413025 348.966431,655.413025 348.952087,662.996765 
	C348.937012,670.982422 348.873169,678.969177 348.982239,686.953308 
	C349.031433,690.557373 347.569946,692.056458 343.924774,691.969971 
	C340.520325,691.889221 338.690552,690.902344 338.756409,687.063843 
	C338.921936,677.417236 338.723175,667.764771 338.850342,658.117065 
	C338.922974,652.609375 346.064514,645.759216 351.635956,645.712830 
	C360.452942,645.639404 369.274353,645.835022 378.087128,645.628601 
	C382.072571,645.535217 383.221466,647.139526 383.290863,650.927490 
	C383.365204,654.983887 381.429871,655.550171 378.063416,655.459106 
	C371.247040,655.274780 364.422485,655.392700 357.121429,655.386047 
z"/>
<path fill="#000000" opacity="1.000000" stroke="none" 
	d="
M520.044250,667.353516 
	C520.883301,672.759521 518.934753,674.954651 513.787476,674.362732 
	C511.323059,674.079407 508.793640,674.196655 506.304565,674.332397 
	C502.964203,674.514648 500.963013,673.695801 500.934631,669.732117 
	C500.906006,665.741821 502.257233,663.810242 506.413635,664.043335 
	C509.400482,664.210815 512.405212,664.030579 515.398621,664.119751 
	C517.405884,664.179504 519.521912,664.251587 520.044250,667.353516 
z"/>
<path fill="#000000" opacity="1.000000" stroke="none" 
	d="
M441.730774,442.000000 
	C441.721558,432.339294 441.824921,423.176361 441.644684,414.019043 
	C441.580505,410.760101 442.806122,408.761505 445.560425,407.187836 
	C466.813263,395.045258 488.044220,382.863861 509.220215,370.588043 
	C511.845215,369.066284 514.006470,369.009430 516.618286,370.519257 
	C537.951965,382.851624 559.318848,395.126862 580.723022,407.336426 
	C583.370850,408.846741 584.331848,410.783905 584.321411,413.797211 
	C584.236572,438.281006 584.238647,462.765350 584.336548,487.249084 
	C584.348816,490.297729 583.265381,492.231750 580.677124,493.710999 
	C559.138428,506.020538 537.617920,518.362000 516.136047,530.770142 
	C514.007568,531.999573 512.232239,532.079895 510.113831,530.858887 
	C488.473999,518.385376 466.818726,505.938538 445.126221,493.557007 
	C442.228912,491.903290 441.629028,489.541260 441.651520,486.471222 
	C441.758881,471.814758 441.719025,457.157166 441.730774,442.000000 
M556.606018,413.936829 
	C544.332703,406.875183 532.063293,399.806824 519.783752,392.756012 
	C516.043457,390.608429 512.326965,389.235382 508.045959,391.725525 
	C493.072113,400.435211 477.992249,408.962799 463.021912,417.678467 
	C458.182800,420.495819 458.312256,422.993591 463.284424,425.952484 
	C469.295532,429.529602 475.498810,432.795074 481.405396,436.532837 
	C485.949249,439.408234 490.095062,439.088257 494.486115,436.428040 
	C499.329590,433.493774 504.269165,430.717621 509.178406,427.892548 
	C510.608337,427.069641 512.139465,425.758057 513.798767,426.648163 
	C518.993713,429.434998 524.071167,432.440826 529.292419,435.417816 
	C528.098083,437.747345 526.465942,438.293060 525.081238,439.117188 
	C520.786743,441.673126 516.375854,444.049713 512.205444,446.792725 
	C508.530426,449.209961 508.596588,451.707581 512.255798,454.141693 
	C514.605530,455.704803 517.230591,456.847198 519.654297,458.307556 
	C522.985962,460.315033 526.625610,461.915710 529.868286,465.378601 
	C525.124695,468.066132 520.779663,470.424530 516.545227,472.967072 
	C514.136719,474.413147 512.008179,474.450470 509.564758,472.992920 
	C504.559143,470.007019 499.381256,467.310333 494.368225,464.336212 
	C490.072906,461.787903 485.996674,461.729309 481.678436,464.347809 
	C476.410553,467.542206 470.963379,470.439423 465.630829,473.529266 
	C458.547485,477.633545 458.415283,480.644806 465.426392,484.735107 
	C479.238983,492.793365 493.184448,500.623535 507.031708,508.622925 
	C510.829285,510.816681 514.436035,511.090881 518.329041,508.835815 
	C532.309509,500.737396 546.370728,492.778351 560.346313,484.671661 
	C564.711182,482.139832 566.785828,478.325439 566.724976,473.080963 
	C566.560486,458.919067 566.340149,444.742676 566.812683,430.594482 
	C567.075073,422.736389 564.413696,417.395782 556.606018,413.936829 
z"/>
<path fill="#000000" opacity="1.000000" stroke="none" 
	d="
M529.736572,473.689941 
	C532.785034,471.915863 535.597595,470.442657 538.224915,468.691650 
	C541.930481,466.222046 541.898438,463.327576 538.091003,460.940582 
	C534.003662,458.378082 529.749329,456.083008 525.592590,453.629395 
	C524.192444,452.802979 522.560242,452.222504 521.511902,450.174225 
	C525.789001,446.440491 531.037170,444.269867 535.771667,441.340332 
	C542.702332,437.051849 542.718872,434.793152 535.608398,430.678528 
	C530.134094,427.510712 524.553711,424.515656 519.185547,421.178223 
	C514.688232,418.382233 510.494812,418.531464 506.081879,421.242828 
	C501.403412,424.117279 496.557739,426.719879 491.883850,429.601379 
	C489.172516,431.272888 486.726562,431.369751 483.990845,429.659576 
	C479.959747,427.139618 475.449951,425.355530 472.055542,422.310089 
	C472.272095,420.153320 473.670197,419.718689 474.776031,419.085236 
	C486.185913,412.549591 497.651398,406.109863 509.009247,399.485382 
	C511.627441,397.958313 513.772400,398.015686 516.431335,399.370911 
	C529.942993,406.257507 542.724792,414.411896 555.919678,421.844574 
	C558.374573,423.227448 559.334229,425.148926 559.319275,427.955811 
	C559.239380,442.940430 559.240662,457.925873 559.312622,472.910583 
	C559.327087,475.912140 558.196716,477.877228 555.578674,479.364502 
	C542.554260,486.763184 529.586304,494.261261 516.607483,501.740051 
	C514.628540,502.880371 512.656677,503.476013 510.490814,502.239075 
	C498.206451,495.223236 485.916901,488.216553 473.629303,481.206329 
	C472.906097,480.793671 472.184753,480.377747 470.657806,479.501648 
	C476.426056,475.238373 481.616882,472.440674 486.995361,469.988586 
	C488.670258,469.224976 490.253632,470.308411 491.690552,471.113800 
	C496.626617,473.880554 501.615814,476.569824 506.407837,479.571136 
	C510.862671,482.361298 515.034363,482.442535 519.463013,479.593445 
	C522.678589,477.524811 526.092468,475.764587 529.736572,473.689941 
z"/>
</svg>